# xmcd CD database file generated by OrangeCD 6.3
#
# Track frame offsets:
#	150
#	19026
#	33057
#	45924
#	63374
#	85491
#	99447
#	119745
#	137515
#	152895
#	164555
#	181429
#	196421
#	207114
#	213249
#	228787
#	253174
#
# Disc length: 3560 seconds
#
# Revision: 0
# Processed by: cddbd v1.5.2PL0 Copyright (c) Steve Scherf et al.
# Submitted via: OrangeCD 6.3
#
DISCID=e30de611
DTITLE=Various Artist - King Easy Radio Sampler, Vol. 4
DYEAR=1900
DGENRE=
TTITLE0=Rusty Truck - Cold Ground
TTITLE1=Caryl Mack Parker - The Love In Your Eyes
TTITLE2=Bob Cheevers - What I've Done For Love
TTITLE3=Shannon Whitworth - No Expectations
TTITLE4=John Oates - Ghost Town
TTITLE5=The Whispertown 2000 - Old Times
TTITLE6=Don Tolle - James Duane
TTITLE7=Robby Hecht - Freight Train Lady
TTITLE8=Kylie Harris - Different Place, Different Time
TTITLE9=The Midnight Ramblers - Somewhere Down The Road
TTITLE10=Darrel Scott - America Tune
TTITLE11=A. J. Roach - Black Lung
TTITLE12=Old Crow Medicine Show - Alabama High-test
TTITLE13=Del McCoury - Get Down On Your Knees And Pray
TTITLE14=Del McCoury - I Feel The Blues Movin' In
TTITLE15=Michael Chapman - That Time Of The Night
TTITLE16=Wayne Scott - Sunday With My Son
EXTD=
EXTT0=
EXTT1=
EXTT2=
EXTT3=
EXTT4=
EXTT5=
EXTT6=
EXTT7=
EXTT8=
EXTT9=
EXTT10=
EXTT11=
EXTT12=
EXTT13=
EXTT14=
EXTT15=
EXTT16=
PLAYORDER=
